<?xml version="1.0" encoding="UTF-8"?>
<!DOCTYPE svg PUBLIC "-//W3C//DTD SVG 1.1//EN" "http://www.w3.org/Graphics/SVG/1.1/DTD/svg11.dtd">
<!-- Creator: CorelDRAW -->
<svg xmlns="http://www.w3.org/2000/svg" xml:space="preserve" width="67.7332mm" height="18.2252mm" version="1.1" style="shape-rendering:geometricPrecision; text-rendering:geometricPrecision; image-rendering:optimizeQuality; fill-rule:evenodd; clip-rule:evenodd"
viewBox="0 0 6773.32 1822.52"
 xmlns:xlink="http://www.w3.org/1999/xlink"
 xmlns:xodm="http://www.corel.com/coreldraw/odm/2003">
 <defs>
  <style type="text/css">
   <![CDATA[
    .fil1 {fill:#0083F5}
    .fil2 {fill:#33CC66}
    .fil0 {fill:white;fill-rule:nonzero}
   ]]>
  </style>
 </defs>
 <g id="Layer_x0020_1">
  <metadata id="CorelCorpID_0Corel-Layer"/>
  <g id="_2821567154912">
   <polygon class="fil0" points="2163.61,1243.62 2163.61,367.65 2296.56,367.65 2627.06,977.72 2587.3,977.72 2916.57,367.65 3047.03,367.65 3047.03,1243.62 2902.9,1243.62 2902.9,603.73 2930.24,603.73 2651.91,1110.67 2558.73,1110.67 2277.92,602.48 2307.74,602.48 2307.74,1243.62 "/>
   <path id="_1" class="fil0" d="M3424.76 1256.05c-43.9,0 -83.04,-8.5 -117.42,-25.48 -34.38,-16.98 -61.3,-39.96 -80.76,-68.96 -19.47,-28.99 -29.2,-61.71 -29.2,-98.15 0,-44.73 11.59,-80.15 34.79,-106.24 23.19,-26.09 60.88,-44.94 113.07,-56.53 52.18,-11.6 122.18,-17.4 209.98,-17.4l62.13 0 0 89.46 -60.89 0c-38.93,0 -71.65,1.45 -98.15,4.35 -26.51,2.9 -47.84,7.46 -63.99,13.67 -16.16,6.21 -27.75,14.7 -34.79,25.47 -7.05,10.77 -10.57,24.02 -10.57,39.76 0,27.34 9.53,49.7 28.58,67.1 19.05,17.39 45.56,26.09 79.52,26.09 27.34,0 51.57,-6.42 72.69,-19.26 21.12,-12.84 37.9,-30.44 50.32,-52.81 12.43,-22.36 18.64,-48.04 18.64,-77.03l0 -142.89c0,-41.42 -9.11,-71.24 -27.34,-89.46 -18.22,-18.22 -48.87,-27.34 -91.94,-27.34 -33.96,0 -68.75,5.18 -104.37,15.53 -35.62,10.36 -71.65,26.3 -108.1,47.84l-44.73 -105.61c21.53,-14.91 47.01,-27.96 76.41,-39.14 29.41,-11.18 60.47,-19.88 93.19,-26.09 32.72,-6.22 63.58,-9.32 92.57,-9.32 59.64,0 108.72,9.11 147.24,27.33 38.51,18.23 67.3,45.77 86.35,82.63 19.05,36.86 28.58,84.28 28.58,142.27l0 367.78 -145.38 0 0 -129.22 9.94 0c-5.79,28.99 -17.18,54.05 -34.17,75.17 -16.98,21.12 -38.31,37.48 -63.98,49.08 -25.68,11.6 -55.09,17.4 -88.22,17.4z"/>
   <polygon id="_2" class="fil0" points="3952.82,1467.27 4079.56,1187.71 4079.56,1252.32 3812.42,636.03 3977.67,636.03 4166.54,1106.94 4129.26,1106.94 4321.85,636.03 4478.41,636.03 4113.11,1467.27 "/>
   <path id="_3" class="fil0" d="M4771.64 1256.05c-50.53,0 -92.36,-9.32 -125.5,-27.96 -33.13,-18.64 -57.77,-46.6 -73.93,-83.87 -16.15,-37.28 -24.22,-83.66 -24.22,-139.16l0 -369.03 155.31 0 0 371.51c0,28.17 3.73,51.98 11.18,71.45 7.46,19.46 19.47,33.55 36.03,42.24 16.57,8.7 37.28,13.05 62.13,13.05 28.16,0 52.81,-6.42 73.93,-19.26 21.12,-12.84 37.69,-30.86 49.7,-54.05 12.01,-23.19 18.02,-50.94 18.02,-83.25l0 -341.69 155.31 0 0 607.59 -151.59 0 0 -126.74 17.4 0c-17.4,44.73 -43.7,79.11 -78.9,103.13 -35.2,24.02 -76.83,36.04 -124.87,36.04z"/>
   <path id="_4" class="fil0" d="M5707.24 1256.05c-96.91,0 -178.71,-18.23 -245.39,-54.68 -66.68,-36.44 -117.42,-88.21 -152.21,-155.31 -34.79,-67.09 -52.18,-146.62 -52.18,-238.56 0,-92.78 17.8,-172.92 53.42,-240.43 35.62,-67.51 86.98,-119.69 154.07,-156.55 67.1,-36.86 147.45,-55.29 241.05,-55.29 41.42,0 80.97,3.93 118.66,11.8 37.69,7.87 72.69,19.26 104.99,34.17 32.31,14.91 60.06,33.13 83.25,54.67l-53.43 124.25c-38.93,-30.65 -78.69,-52.6 -119.28,-65.85 -40.59,-13.26 -85.32,-19.88 -134.19,-19.88 -92.77,0 -162.97,26.92 -210.6,80.76 -47.63,53.84 -71.45,131.29 -71.45,232.35 0,101.88 24.44,179.33 73.31,232.35 48.87,53.01 121.35,79.52 217.44,79.52 33.13,0 66.68,-3.31 100.64,-9.94 33.96,-6.63 67.1,-15.74 99.4,-27.34l-31.06 70.83 0 -264.66 -201.29 0 0 -118.04 334.24 0 0 421.21c-26.51,13.26 -56.95,24.65 -91.33,34.17 -34.37,9.53 -70.2,16.98 -107.47,22.37 -37.28,5.38 -74.14,8.08 -110.59,8.08z"/>
   <path id="_5" class="fil0" d="M6462.69 1256.05c-63.78,0 -118.66,-12.84 -164.63,-38.52 -45.97,-25.68 -81.8,-62.13 -107.48,-109.34 -25.68,-47.22 -38.51,-103.13 -38.51,-167.74 0,-65.44 12.83,-121.77 38.51,-168.98 25.68,-47.22 61.51,-83.67 107.48,-109.34 45.97,-25.68 100.85,-38.52 164.63,-38.52 62.96,0 117.63,12.84 164.01,38.52 46.39,25.67 82.42,62.33 108.1,109.96 25.68,47.63 38.52,103.33 38.52,167.12 0,65.43 -12.84,121.76 -38.52,168.98 -25.68,47.21 -61.71,83.66 -108.1,109.34 -46.38,25.68 -101.05,38.52 -164.01,38.52zm-1.24 -118.04c47.22,0 84.91,-16.78 113.07,-50.33 28.16,-33.54 42.24,-83.04 42.24,-148.47 0,-66.27 -14.08,-115.77 -42.24,-148.48 -28.16,-32.72 -65.85,-49.08 -113.07,-49.08 -45.56,0 -82.42,16.36 -110.58,49.08 -28.17,32.71 -42.25,82.21 -42.25,148.48 0,65.43 14.08,114.93 42.25,148.47 28.16,33.55 65.02,50.33 110.58,50.33z"/>
   <path class="fil1" d="M1549.19 1264.6l0 248.69 0 48.75c-3.53,3.45 -7.09,6.88 -10.68,10.29 -365.1,346.4 -941.89,331.25 -1288.3,-33.86 -346.4,-365.1 -331.25,-941.87 33.85,-1288.29 365.11,-346.39 941.89,-331.24 1288.31,33.86 161.52,170.25 244.42,386.51 249.89,603.98l0.05 2.04 0.04 1.46 -0.02 0c0,50.34 -40.8,91.13 -91.12,91.13 -50.33,0 -91.13,-40.79 -91.13,-91.13l-0.02 0c-4.65,-173.59 -70.96,-346.14 -199.91,-482.04 -277.12,-292.07 -738.56,-304.2 -1030.64,-27.08 -292.08,277.12 -304.22,738.55 -27.09,1030.63 262.79,276.97 691.3,302.17 983.99,67.72l0 -432.81 182.78 0 0 216.66z"/>
   <circle class="fil2" transform="matrix(-0.202277 -0.0736219 -0.0736228 0.202275 1688.51 1173.14)" r="423.34"/>
   <path class="fil2" d="M1549.2 1047.95l-0.53 0 -0.01 0 -0.02 2.35 -0.01 0c-0.02,0.78 -0.04,1.56 -0.08,2.33l-0.01 0 -0.14 2.33 0 0 -0.2 2.3 -0.01 0 -0.26 2.29 0 0 -0.31 2.27 -0.01 0 -0.37 2.26 0 0 -0.42 2.23 -0.01 0 -0.48 2.22 0 0 -0.53 2.19 0 0 -0.59 2.17 0 0 -0.64 2.15 -0.01 0 -0.68 2.13 0 0 -0.75 2.11 -0.78 2.08 -0.01 0 -0.84 2.06 -0.88 2.03 -0.01 0 -0.93 2 -0.98 1.98 -0.01 0 -1.02 1.95 -0.01 0 -1.07 1.92c-1.46,2.55 -3.05,5.01 -4.74,7.4l-1.29 1.76 0 0.01 -1.33 1.73 0 0 -1.37 1.71 -0.01 0 -1.4 1.67 -0.01 0 -1.45 1.63 0 0 -1.49 1.61c-1.01,1.05 -2.04,2.08 -3.09,3.09l-1.6 1.49 0 0 -1.64 1.45 0 0 -1.67 1.41 0 0 -1.7 1.37 0 0.01 -1.74 1.33 0 0 -1.77 1.29c-2.39,1.69 -4.85,3.27 -7.39,4.74l-1.93 1.07 0 0 -1.95 1.03 0 0 -1.98 0.98 -2 0.94 0 0 -2.03 0.89 -2.06 0.84 0 0 -2.08 0.79 -2.11 0.74 0 0.01 -2.12 0.68 0 0 -2.16 0.64 0 0.01 -2.17 0.58 0 0.01 -2.19 0.52 0 0.01 -2.22 0.48 0 0 -2.23 0.42 0 0.01 -2.25 0.37 0 0 -2.28 0.32 0 0 -2.29 0.26 0 0 -2.3 0.2 0 0.01 -2.32 0.14 0 0 -2.34 0.09 0 0 -2.35 0.03 -2.35 -0.03 0 0c-0.79,-0.02 -1.56,-0.05 -2.34,-0.09l0 0 -2.32 -0.14 0 -0.01 -2.31 -0.2 0 0 -2.29 -0.26 0 0 -2.27 -0.32 0 0 -2.25 -0.37 0 -0.01 -2.24 -0.42 0 0 -2.21 -0.48 0 -0.01 -2.19 -0.52 -0.01 -0.01 -2.17 -0.58 0 -0.01 -2.15 -0.64 0 0 -2.13 -0.68 0 -0.01 -2.1 -0.74 -0.01 0 -2.07 -0.79 0 0 -2.06 -0.84 -2.03 -0.89 0 0 -2.01 -0.94 0 0 -1.98 -0.98 0 0 -1.95 -1.03 0 0 -1.92 -1.07 -1.89 -1.12 0 -0.01 -1.87 -1.15 0 -0.01 -1.83 -1.2 0 0 -1.8 -1.25 -0.01 0 -1.77 -1.29 -1.73 -1.33 0 -0.01 -1.71 -1.37 0 0 -1.67 -1.41 0 0 -1.63 -1.45 -0.01 0 -1.59 -1.49 -0.01 0 -1.56 -1.53 0 0 -1.52 -1.56 -0.01 0 -1.49 -1.61 -1.45 -1.63 -1.41 -1.67 -1.37 -1.71 -1.33 -1.73 -0.01 -0.01 -1.28 -1.76 -0.01 0 -1.25 -1.8 0 -0.01 -1.2 -1.83 0 0 -1.17 -1.86 0 -0.01 -1.11 -1.89 -1.08 -1.92 -1.03 -1.95 -0.98 -1.98 -0.01 0 -0.93 -2 -0.89 -2.03 0 0 -0.84 -2.06 -0.79 -2.08 0 0 -0.74 -2.11 -0.69 -2.13 -0.64 -2.15 -0.59 -2.17 -0.54 -2.19 -0.48 -2.22 -0.42 -2.23 -0.38 -2.26 -0.32 -2.27 -0.26 -2.29 -0.2 -2.3 -0.15 -2.33c-0.04,-0.77 -0.07,-1.55 -0.09,-2.33l-0.03 -2.35 0.03 -2.35c0.02,-0.79 0.05,-1.57 0.09,-2.34l0.15 -2.33 0.07 -0.84c-4.16,-96.65 -84.45,-174.39 -182.07,-174.39 -100.25,0 -182.25,81.99 -182.26,182.25l0 0c0,50.32 -40.8,91.12 -91.13,91.12 -50.32,0 -91.12,-40.8 -91.12,-91.12 0,-100.26 -82.01,-182.26 -182.26,-182.26 -100.25,0 -182.25,82.01 -182.25,182.26 0,50.32 -40.8,91.12 -91.13,91.12 -50.33,0 -91.13,-40.8 -91.13,-91.12l0 0 0 -0.01c0,-200.5 164.02,-364.51 364.52,-364.51 108.59,0 206.45,48.12 273.38,124.08 69.35,-78.7 168.37,-124.07 273.38,-124.07 200.5,0 364.52,164.03 364.52,364.51zm-91.66 91.12l0 0 0 0z"/>
  </g>
 </g>
</svg>
